<svg width="478" height="477" viewBox="0 0 478 477" fill="none" xmlns="http://www.w3.org/2000/svg">
<path d="M425.61 293.938C433.229 268.251 422.711 239.591 399.132 213.125C374.891 185.905 357.172 153.205 347.594 118.049C338.271 83.8569 320.008 59.3906 294.321 51.7722C268.634 44.1538 239.975 54.6723 213.508 78.2512C186.289 102.492 153.588 120.211 118.433 129.788C84.2402 139.112 59.7738 157.374 52.1554 183.061C44.537 208.748 55.0556 237.408 78.6346 263.875C102.875 291.094 120.594 323.794 130.172 358.95C139.495 393.142 157.757 417.609 183.444 425.227C209.132 432.846 237.791 422.327 264.258 398.748C291.478 374.507 324.148 356.78 359.334 347.211C393.526 337.887 417.992 319.625 425.61 293.938Z" fill="#EFEFEF"/>
<path d="M83.2076 326.327L102.866 153.213H394.744L375.085 326.327H83.2076Z" stroke="#FF4F00" stroke-width="2.26145" stroke-miterlimit="10" stroke-linecap="round" stroke-linejoin="round"/>
<path d="M101.171 165.374L102.866 153.213H394.744L393.048 165.374H101.171Z" stroke="#FF4F00" stroke-width="2.26145" stroke-miterlimit="10" stroke-linecap="round" stroke-linejoin="round"/>
<path d="M144.815 253.378H114.396L110.577 284.138H141.72L144.815 253.378Z" stroke="#006BFF" stroke-width="2.26145" stroke-miterlimit="10" stroke-linecap="round" stroke-linejoin="round"/>
<path d="M175.959 253.378H144.815L141.721 284.138H172.864L175.959 253.378Z" stroke="#006BFF" stroke-width="2.26145" stroke-miterlimit="10" stroke-linecap="round" stroke-linejoin="round"/>
<path d="M207.101 253.378H175.958L172.863 284.138H203.282L207.101 253.378Z" stroke="#006BFF" stroke-width="2.26145" stroke-miterlimit="10" stroke-linecap="round" stroke-linejoin="round"/>
<path d="M237.521 253.378H207.102L203.283 284.138H234.426L237.521 253.378Z" stroke="#006BFF" stroke-width="2.26145" stroke-miterlimit="10" stroke-linecap="round" stroke-linejoin="round"/>
<path d="M268.664 253.378H237.521L234.426 284.138H265.569L268.664 253.378Z" stroke="#006BFF" stroke-width="2.26145" stroke-miterlimit="10" stroke-linecap="round" stroke-linejoin="round"/>
<path d="M148.748 223.334H117.605L114.397 253.379H144.816L148.748 223.334Z" stroke="#006BFF" stroke-width="2.26145" stroke-miterlimit="10" stroke-linecap="round" stroke-linejoin="round"/>
<path d="M179.167 223.334H148.748L144.815 253.379H175.959L179.167 223.334Z" stroke="#006BFF" stroke-width="2.26145" stroke-miterlimit="10" stroke-linecap="round" stroke-linejoin="round"/>
<path d="M210.311 223.334H179.168L175.959 253.379H207.102L210.311 223.334Z" stroke="#006BFF" stroke-width="2.26145" stroke-miterlimit="10" stroke-linecap="round" stroke-linejoin="round"/>
<path d="M241.453 223.334H210.31L207.102 253.379H237.521L241.453 223.334Z" stroke="#006BFF" stroke-width="2.26145" stroke-miterlimit="10" stroke-linecap="round" stroke-linejoin="round"/>
<path d="M272.597 223.334H241.454L237.521 253.379H268.664L272.597 223.334Z" stroke="#006BFF" stroke-width="2.26145" stroke-miterlimit="10" stroke-linecap="round" stroke-linejoin="round"/>
<path d="M151.843 192.574H121.424L117.605 223.334H148.748L151.843 192.574Z" stroke="#006BFF" stroke-width="2.26145" stroke-miterlimit="10" stroke-linecap="round" stroke-linejoin="round"/>
<path d="M182.986 192.574H151.842L148.747 223.334H179.166L182.986 192.574Z" stroke="#006BFF" stroke-width="2.26145" stroke-miterlimit="10" stroke-linecap="round" stroke-linejoin="round"/>
<path d="M214.129 192.574H182.986L179.167 223.334H210.31L214.129 192.574Z" stroke="#006BFF" stroke-width="2.26145" stroke-miterlimit="10" stroke-linecap="round" stroke-linejoin="round"/>
<path d="M244.548 192.574H214.129L210.31 223.334H241.453L244.548 192.574Z" stroke="#006BFF" stroke-width="2.26145" stroke-miterlimit="10" stroke-linecap="round" stroke-linejoin="round"/>
<path d="M275.692 192.574H244.548L241.453 223.334H272.597L275.692 192.574Z" stroke="#006BFF" stroke-width="2.26145" stroke-miterlimit="10" stroke-linecap="round" stroke-linejoin="round"/>
<path d="M141.721 284.139H110.577L107.482 314.898H137.901L141.721 284.139Z" stroke="#006BFF" stroke-width="2.26145" stroke-miterlimit="10" stroke-linecap="round" stroke-linejoin="round"/>
<path d="M172.863 284.139H141.72L137.901 314.898H169.044L172.863 284.139Z" stroke="#006BFF" stroke-width="2.26145" stroke-miterlimit="10" stroke-linecap="round" stroke-linejoin="round"/>
<path d="M203.283 284.139H172.864L169.044 314.898H200.188L203.283 284.139Z" stroke="#006BFF" stroke-width="2.26145" stroke-miterlimit="10" stroke-linecap="round" stroke-linejoin="round"/>
<path d="M234.427 284.139H203.283L200.188 314.898H231.331L234.427 284.139Z" stroke="#006BFF" stroke-width="2.26145" stroke-miterlimit="10" stroke-linecap="round" stroke-linejoin="round"/>
<path d="M265.569 284.139H234.426L231.331 314.898H261.75L265.569 284.139Z" stroke="#006BFF" stroke-width="2.26145" stroke-miterlimit="10" stroke-linecap="round" stroke-linejoin="round"/>
<path d="M299.808 253.378H268.664L265.569 284.138H295.988L299.808 253.378Z" stroke="#006BFF" stroke-width="2.26145" stroke-miterlimit="10" stroke-linecap="round" stroke-linejoin="round"/>
<path d="M303.015 223.334H272.597L268.664 253.379H299.807L303.015 223.334Z" stroke="#006BFF" stroke-width="2.26145" stroke-miterlimit="10" stroke-linecap="round" stroke-linejoin="round"/>
<path d="M306.835 192.574H275.692L272.597 223.334H303.016L306.835 192.574Z" stroke="#006BFF" stroke-width="2.26145" stroke-miterlimit="10" stroke-linecap="round" stroke-linejoin="round"/>
<path d="M295.989 284.139H265.569L261.75 314.898H292.893L295.989 284.139Z" stroke="#006BFF" stroke-width="2.26145" stroke-miterlimit="10" stroke-linecap="round" stroke-linejoin="round"/>
<path d="M330.951 253.378H299.807L295.988 284.138H327.131L330.951 253.378Z" stroke="#006BFF" stroke-width="2.26145" stroke-miterlimit="10" stroke-linecap="round" stroke-linejoin="round"/>
<path d="M334.159 223.334H303.016L299.807 253.379H330.951L334.159 223.334Z" stroke="#006BFF" stroke-width="2.26145" stroke-miterlimit="10" stroke-linecap="round" stroke-linejoin="round"/>
<path d="M337.254 192.574H306.835L303.016 223.334H334.159L337.254 192.574Z" stroke="#006BFF" stroke-width="2.26145" stroke-miterlimit="10" stroke-linecap="round" stroke-linejoin="round"/>
<path d="M327.131 284.139H295.988L292.893 314.898H324.036L327.131 284.139Z" stroke="#006BFF" stroke-width="2.26145" stroke-miterlimit="10" stroke-linecap="round" stroke-linejoin="round"/>
<path d="M361.37 253.378H330.951L327.132 284.138H358.275L361.37 253.378Z" stroke="#006BFF" stroke-width="2.26145" stroke-miterlimit="10" stroke-linecap="round" stroke-linejoin="round"/>
<path d="M365.302 223.334H334.159L330.95 253.379H361.37L365.302 223.334Z" stroke="#006BFF" stroke-width="2.26145" stroke-miterlimit="10" stroke-linecap="round" stroke-linejoin="round"/>
<path d="M368.398 192.574H337.255L334.159 223.334H365.303L368.398 192.574Z" stroke="#006BFF" stroke-width="2.26145" stroke-miterlimit="10" stroke-linecap="round" stroke-linejoin="round"/>
<path d="M368.397 192.574H121.424L122.666 177.552H370.364L368.397 192.574Z" stroke="#006BFF" stroke-width="2.26145" stroke-miterlimit="10" stroke-linecap="round" stroke-linejoin="round" stroke-dasharray="3.62 3.62"/>
<path d="M357.777 285.569L358.274 284.138H356.102" stroke="#006BFF" stroke-width="2.26145" stroke-linecap="round" stroke-linejoin="round"/>
<path d="M352.48 284.138H330.752" stroke="#006BFF" stroke-width="2.26145" stroke-linecap="round" stroke-linejoin="round" stroke-dasharray="3.9 3.9"/>
<path d="M329.304 284.138H327.131L326.634 285.569" stroke="#006BFF" stroke-width="2.26145" stroke-linecap="round" stroke-linejoin="round"/>
<path d="M326.589 289.861L324.194 311.322" stroke="#006BFF" stroke-width="2.26145" stroke-linecap="round" stroke-linejoin="round" stroke-dasharray="4.06 4.06"/>
<path d="M323.696 312.752L324.036 314.898H325.485" stroke="#006BFF" stroke-width="2.26145" stroke-linecap="round" stroke-linejoin="round"/>
<path d="M329.83 314.899H350.834" stroke="#006BFF" stroke-width="2.26145" stroke-linecap="round" stroke-linejoin="round" stroke-dasharray="3.9 3.9"/>
<path d="M353.007 314.898H354.455L354.84 312.752" stroke="#006BFF" stroke-width="2.26145" stroke-linecap="round" stroke-linejoin="round"/>
<path d="M354.998 309.176L357.393 287.715" stroke="#006BFF" stroke-width="2.26145" stroke-linecap="round" stroke-linejoin="round" stroke-dasharray="4.06 4.06"/>
<path d="M254.498 269.116H236.391" stroke="#006BFF" stroke-width="2.26145" stroke-miterlimit="10" stroke-linecap="round" stroke-linejoin="round"/>
<path d="M250.921 264.824L254.498 269.116" stroke="#006BFF" stroke-width="2.26145" stroke-miterlimit="10" stroke-linecap="round" stroke-linejoin="round"/>
<path d="M250.921 264.824L254.498 269.116" stroke="#006BFF" stroke-width="2.26145" stroke-miterlimit="10" stroke-linecap="round" stroke-linejoin="round"/>
<path d="M250.107 273.408L254.497 269.116" stroke="#006BFF" stroke-width="2.26145" stroke-miterlimit="10" stroke-linecap="round" stroke-linejoin="round"/>
<path d="M253.567 254.094L252.685 257.67" stroke="#006BFF" stroke-width="2.26145" stroke-miterlimit="10" stroke-linecap="round" stroke-linejoin="round"/>
<path d="M247.163 254.809L248.453 258.386" stroke="#006BFF" stroke-width="2.26145" stroke-miterlimit="10" stroke-linecap="round" stroke-linejoin="round"/>
<path d="M241.935 258.386L244.56 261.247" stroke="#006BFF" stroke-width="2.26145" stroke-miterlimit="10" stroke-linecap="round" stroke-linejoin="round"/>
<path d="M238.382 263.394L241.506 264.824" stroke="#006BFF" stroke-width="2.26145" stroke-miterlimit="10" stroke-linecap="round" stroke-linejoin="round"/>
<path d="M263.189 269.116H266.811" stroke="#006BFF" stroke-width="2.26145" stroke-miterlimit="10" stroke-linecap="round" stroke-linejoin="round"/>
<path d="M236.574 274.838L240.693 273.408" stroke="#006BFF" stroke-width="2.26145" stroke-miterlimit="10" stroke-linecap="round" stroke-linejoin="round"/>
<path d="M239.54 279.846L242.708 276.984" stroke="#006BFF" stroke-width="2.26145" stroke-miterlimit="10" stroke-linecap="round" stroke-linejoin="round"/>
<path d="M246.058 279.846L244.452 283.423" stroke="#006BFF" stroke-width="2.26145" stroke-miterlimit="10" stroke-linecap="round" stroke-linejoin="round"/>
<path d="M250.517 280.561L249.635 284.138" stroke="#006BFF" stroke-width="2.26145" stroke-miterlimit="10" stroke-linecap="round" stroke-linejoin="round"/>
<path d="M254.749 279.846L256.04 283.423" stroke="#006BFF" stroke-width="2.26145" stroke-miterlimit="10" stroke-linecap="round" stroke-linejoin="round"/>
<path d="M261.267 279.846L258.641 276.984" stroke="#006BFF" stroke-width="2.26145" stroke-miterlimit="10" stroke-linecap="round" stroke-linejoin="round"/>
<path d="M261.696 273.408L265.544 274.838" stroke="#006BFF" stroke-width="2.26145" stroke-miterlimit="10" stroke-linecap="round" stroke-linejoin="round"/>
<path d="M262.51 264.824L266.629 263.394" stroke="#006BFF" stroke-width="2.26145" stroke-miterlimit="10" stroke-linecap="round" stroke-linejoin="round"/>
<path d="M260.494 261.247L263.662 258.386" stroke="#006BFF" stroke-width="2.26145" stroke-miterlimit="10" stroke-linecap="round" stroke-linejoin="round"/>
<path d="M257.144 258.386L259.474 254.809" stroke="#006BFF" stroke-width="2.26145" stroke-miterlimit="10" stroke-linecap="round" stroke-linejoin="round"/>
<path d="M341.411 269.116H360.242" stroke="#006BFF" stroke-width="2.26145" stroke-miterlimit="10" stroke-linecap="round" stroke-linejoin="round"/>
<path d="M345.712 273.408L341.411 269.116" stroke="#006BFF" stroke-width="2.26145" stroke-miterlimit="10" stroke-linecap="round" stroke-linejoin="round"/>
<path d="M345.712 273.408L341.411 269.116" stroke="#006BFF" stroke-width="2.26145" stroke-miterlimit="10" stroke-linecap="round" stroke-linejoin="round"/>
<path d="M346.526 264.824L341.412 269.116" stroke="#006BFF" stroke-width="2.26145" stroke-miterlimit="10" stroke-linecap="round" stroke-linejoin="round"/>
<path d="M342.341 284.138L343.223 280.561" stroke="#006BFF" stroke-width="2.26145" stroke-miterlimit="10" stroke-linecap="round" stroke-linejoin="round"/>
<path d="M348.746 283.423L347.456 279.846" stroke="#006BFF" stroke-width="2.26145" stroke-miterlimit="10" stroke-linecap="round" stroke-linejoin="round"/>
<path d="M353.974 279.846L351.348 276.984" stroke="#006BFF" stroke-width="2.26145" stroke-miterlimit="10" stroke-linecap="round" stroke-linejoin="round"/>
<path d="M358.251 274.838L354.403 273.408" stroke="#006BFF" stroke-width="2.26145" stroke-miterlimit="10" stroke-linecap="round" stroke-linejoin="round"/>
<path d="M332.719 269.116H329.098" stroke="#006BFF" stroke-width="2.26145" stroke-miterlimit="10" stroke-linecap="round" stroke-linejoin="round"/>
<path d="M359.335 263.394L355.216 264.824" stroke="#006BFF" stroke-width="2.26145" stroke-miterlimit="10" stroke-linecap="round" stroke-linejoin="round"/>
<path d="M356.369 258.386L353.201 261.247" stroke="#006BFF" stroke-width="2.26145" stroke-miterlimit="10" stroke-linecap="round" stroke-linejoin="round"/>
<path d="M349.85 258.386L352.181 254.809" stroke="#006BFF" stroke-width="2.26145" stroke-miterlimit="10" stroke-linecap="round" stroke-linejoin="round"/>
<path d="M345.391 257.67L346.273 254.094" stroke="#006BFF" stroke-width="2.26145" stroke-miterlimit="10" stroke-linecap="round" stroke-linejoin="round"/>
<path d="M341.159 258.386L339.869 254.809" stroke="#006BFF" stroke-width="2.26145" stroke-miterlimit="10" stroke-linecap="round" stroke-linejoin="round"/>
<path d="M334.641 258.386L337.267 261.247" stroke="#006BFF" stroke-width="2.26145" stroke-miterlimit="10" stroke-linecap="round" stroke-linejoin="round"/>
<path d="M334.213 264.824L331.089 263.394" stroke="#006BFF" stroke-width="2.26145" stroke-miterlimit="10" stroke-linecap="round" stroke-linejoin="round"/>
<path d="M333.399 273.408L329.28 274.838" stroke="#006BFF" stroke-width="2.26145" stroke-miterlimit="10" stroke-linecap="round" stroke-linejoin="round"/>
<path d="M335.414 276.984L332.246 279.846" stroke="#006BFF" stroke-width="2.26145" stroke-miterlimit="10" stroke-linecap="round" stroke-linejoin="round"/>
<path d="M338.764 279.846L337.158 283.423" stroke="#006BFF" stroke-width="2.26145" stroke-miterlimit="10" stroke-linecap="round" stroke-linejoin="round"/>
<path d="M153.891 285.697L103.713 285.611L108.32 236.346L158.498 236.431L153.891 285.697Z" fill="#006BFF" stroke="white" stroke-width="2.33383" stroke-miterlimit="10" stroke-linecap="round" stroke-linejoin="round"/>
<path d="M129.46 279.925C118.958 279.907 111.593 271.874 111.96 261.561C112.327 251.249 122.467 243.245 132.969 243.263C143.471 243.28 150.836 251.314 150.469 261.626C148.935 271.937 139.962 279.943 129.46 279.925Z" fill="#006BFF" stroke="white" stroke-width="2.33383" stroke-miterlimit="10" stroke-linecap="round" stroke-linejoin="round"/>
<path d="M130.631 261.592L132.458 246.699" stroke="white" stroke-width="2.33383" stroke-miterlimit="10" stroke-linecap="round" stroke-linejoin="round"/>
<path d="M130.631 261.593L138.656 254.731" stroke="white" stroke-width="2.33383" stroke-miterlimit="10" stroke-linecap="round" stroke-linejoin="round"/>
<path d="M276.574 290.389L226.398 290.161L231.144 240.908L281.321 241.136L276.574 290.389Z" fill="#006BFF" stroke="white" stroke-width="2.33383" stroke-miterlimit="10" stroke-linecap="round" stroke-linejoin="round"/>
<path d="M252.159 284.548C262.661 284.596 271.656 276.615 273.219 266.309C273.616 255.997 266.275 247.943 255.773 247.895C245.271 247.848 236.276 255.828 234.712 266.134C234.1 275.298 241.656 284.501 252.159 284.548Z" fill="#006BFF" stroke="white" stroke-width="2.33383" stroke-miterlimit="10" stroke-linecap="round" stroke-linejoin="round"/>
<path d="M254.336 265.078L255.254 251.331" stroke="white" stroke-width="2.33383" stroke-miterlimit="10" stroke-linecap="round" stroke-linejoin="round"/>
<path d="M254.336 265.077L254.948 255.912" stroke="white" stroke-width="2.33383" stroke-miterlimit="10" stroke-linecap="round" stroke-linejoin="round"/>
<path d="M254.336 265.077L262.413 270.844" stroke="white" stroke-width="2.33383" stroke-miterlimit="10" stroke-linecap="round" stroke-linejoin="round"/>
<line x1="280.238" y1="268.547" x2="326.598" y2="268.547" stroke="#006BFF" stroke-width="2.26145" stroke-linecap="round" stroke-dasharray="4.52 4.52"/>
<path d="M226.246 236.563L170.275 236.563L178.473 184.033L232.465 184.033L226.246 236.563Z" fill="#FF4F00" stroke="white" stroke-width="2.54638" stroke-miterlimit="10" stroke-linecap="round" stroke-linejoin="round"/>
<path d="M200.636 195.348L200.639 195.344C202.362 193.023 205.851 192.914 206.939 195.223L206.94 195.224L218.439 219.516L218.44 219.519C219.771 222.306 217.072 225.975 213.653 225.993C211.659 226.001 209.459 226.01 207.154 226.02C199.582 226.052 190.867 226.089 184.56 226.106L184.56 226.106C181.472 226.116 180.043 222.9 182.021 220.263L182.022 220.261L200.636 195.348Z" stroke="white" stroke-width="2.04859"/>
<g opacity="0.5">
<path opacity="0.5" d="M199.933 196.69C199.933 196.69 199.999 196.61 200.088 196.445C200.154 196.365 200.219 196.284 200.297 196.162C200.417 196.043 200.537 195.925 200.669 195.764C200.832 195.65 200.995 195.536 201.17 195.379C201.375 195.269 201.604 195.074 201.853 194.969C202.362 194.714 202.988 194.515 203.708 194.455C204.428 194.395 205.187 194.513 205.92 194.888C206.26 195.095 206.588 195.343 206.893 195.677C206.955 195.77 207.029 195.82 207.092 195.913C207.155 196.006 207.217 196.099 207.28 196.192C207.405 196.378 207.488 196.559 207.601 196.787C208.355 198.38 209.265 200.204 210.215 202.206C212.157 206.214 214.418 210.99 216.968 216.316C217.267 216.996 217.62 217.638 217.918 218.318C218.248 219.044 218.372 219.881 218.259 220.781C218.044 222.539 216.766 224.324 214.967 225.276C214.09 225.755 213.098 226.005 212.133 225.998C211.253 225.999 210.331 225.996 209.451 225.997C207.649 225.994 205.792 226.03 203.947 226.024C200.203 226.049 196.555 226.041 193.08 226.049C191.32 226.051 189.604 226.057 187.887 226.063C187.447 226.064 187.05 226.068 186.61 226.069L185.999 226.053L185.357 225.99C184.512 225.864 183.724 225.527 183.123 224.991C181.962 223.923 181.543 222.233 182.066 220.636C182.124 220.424 182.17 220.255 182.27 220.048C182.371 219.841 182.46 219.676 182.549 219.511L182.912 218.982C183.044 218.822 183.133 218.657 183.265 218.496C183.749 217.849 184.221 217.244 184.651 216.635C186.498 214.212 188.171 211.945 189.743 209.886C192.845 205.762 195.374 202.451 197.144 200.15C198.023 199.021 198.705 198.133 199.177 197.528C199.638 196.965 199.89 196.686 199.933 196.69C199.933 196.69 199.755 197.02 199.271 197.667C198.842 198.276 198.148 199.207 197.355 200.344C195.659 202.696 193.204 206.058 190.103 210.181C188.573 212.245 186.9 214.512 185.084 216.981C184.612 217.586 184.182 218.195 183.698 218.842C183.566 219.003 183.478 219.168 183.346 219.328L183.048 219.777C182.959 219.942 182.87 220.106 182.824 220.276C182.735 220.44 182.689 220.61 182.643 220.779C182.22 222.169 182.569 223.635 183.592 224.559C184.088 224.998 184.79 225.327 185.518 225.398L186.075 225.452L186.686 225.469C187.126 225.468 187.523 225.463 187.963 225.463C189.636 225.453 191.396 225.451 193.155 225.449C196.674 225.445 200.333 225.411 204.034 225.382C205.879 225.388 207.736 225.352 209.538 225.354C210.46 225.357 211.34 225.356 212.22 225.355C213.057 225.35 213.908 225.13 214.677 224.727C216.216 223.923 217.35 222.341 217.55 220.799C217.672 220.029 217.568 219.282 217.258 218.644C216.959 217.964 216.618 217.28 216.308 216.642C213.8 211.321 211.594 206.506 209.706 202.46C208.756 200.458 207.943 198.6 207.19 197.008C207.107 196.826 206.993 196.598 206.911 196.416C206.848 196.324 206.829 196.235 206.766 196.142C206.703 196.049 206.629 195.998 206.567 195.906C206.347 195.58 206.008 195.374 205.711 195.171C205.064 194.804 204.347 194.691 203.681 194.713C203.016 194.735 202.402 194.892 201.893 195.146C201.644 195.252 201.427 195.404 201.221 195.514C201.046 195.671 200.84 195.781 200.72 195.899C200.6 196.018 200.437 196.132 200.359 196.255C200.239 196.373 200.173 196.454 200.108 196.534C199.999 196.61 199.933 196.69 199.933 196.69Z" fill="white"/>
</g>
<path d="M200.151 202.83L199.044 213.353C198.942 214.211 199.54 214.92 200.408 214.961C201.319 215.007 202.243 214.359 202.539 213.433L205.558 202.837C205.776 202.033 205.264 201.333 204.427 201.338L201.776 201.383C200.94 201.388 200.23 202.057 200.151 202.83Z" fill="white"/>
<path d="M202.162 220.469C201.482 221.835 199.839 222.543 198.548 222.113C197.216 221.679 196.739 220.201 197.407 218.877C198.087 217.512 199.731 216.804 201.021 217.234C202.354 217.668 202.885 219.108 202.162 220.469Z" fill="white"/>
</svg>
